# xmcd
#
# Track frame offsets:
#	150
#	28317
#	60944
#	81030
#	101432
#	117259
#	139010
#	160615
#	182707
#	205290
#	224017
#	256717
#	280081
#
# Disc length: 4109 seconds
#
# Revision: 1
# Processed by: cddbd v1.5.2PL0 Copyright (c) Steve Scherf et al.
# Submitted via: audiograbber 1.83.01
#
DISCID=b1100b0d
DTITLE=Didge Extreme /David Blonski  - Into the Night - Music for the Road
DYEAR=1900
DGENRE=Electronic
TTITLE0=The Encounter
TTITLE1=Must Be Dreaming
TTITLE2=Twilight Begins
TTITLE3=Hard Drive
TTITLE4=Cruise Control
TTITLE5=Overdrive
TTITLE6=Desert Crossroads
TTITLE7=Caravan
TTITLE8=Alien Highway
TTITLE9=Area 51
TTITLE10=Midnight Run
TTITLE11=City That Never Sleeps
TTITLE12=Into the Night I Roam
EXTD=
EXTT0=
EXTT1=
EXTT2=
EXTT3=
EXTT4=
EXTT5=
EXTT6=
EXTT7=
EXTT8=
EXTT9=
EXTT10=
EXTT11=
EXTT12=
PLAYORDER=
